# xmcd
#
# Track frame offsets:
#	150
#	2990
#	19974
#	36003
#	58221
#	75608
#	91920
#	113030
#	127451
#	142305
#	162240
#
# Disc length: 2416 seconds
#
# Revision: 1
# Processed by: cddbd v1.5.2PL0 Copyright (c) Steve Scherf et al.
# Submitted via: EasyCDDAExtractor 16.1.0.1
#
DISCID=9a096e0b
DTITLE=Songs For Iris - Let's Begin
DYEAR=2015
DGENRE=Country
TTITLE0=To Bleed
TTITLE1=Valleys Over Mountains
TTITLE2=Homeless
TTITLE3=How Long Will This Country Hold Me
TTITLE4=Lift This Pressure Of My Chest
TTITLE5=Less Hollow
TTITLE6=Somewhere In The Dark
TTITLE7=Daisies Decide
TTITLE8=Comgidium
TTITLE9=I Plan To Do So
TTITLE10=The Flood
EXTD=
EXTT0=
EXTT1=
EXTT2=
EXTT3=
EXTT4=
EXTT5=
EXTT6=
EXTT7=
EXTT8=
EXTT9=
EXTT10=
PLAYORDER=
